<?xml version="1.0" encoding="utf-8"?>
<!-- Generator: Adobe Illustrator 19.0.0, SVG Export Plug-In . SVG Version: 6.00 Build 0)  -->
<svg version="1.1" id="Layer_1" xmlns="http://www.w3.org/2000/svg" xmlns:xlink="http://www.w3.org/1999/xlink" x="0px" y="0px"
	 viewBox="0 0 512 512" style="enable-background:new 0 0 512 512;" xml:space="preserve">
<g id="XMLID_1_">
	<polyline id="XMLID_3_" points="239.8,91.3 512,91.3 512,75.1 239.8,75.1 	"/>
	<polyline id="XMLID_4_" points="175.8,170.7 424.1,170.7 424.1,155.3 175.8,155.3 	"/>
	<polyline id="XMLID_5_" points="175.8,250.9 512,250.9 512,234.7 175.8,234.7 	"/>
	<polyline id="XMLID_6_" points="175.8,331.1 448,331.1 448,314.9 175.8,314.9 	"/>
	<polyline id="XMLID_7_" points="175.8,410.5 512,410.5 512,395.1 175.8,395.1 	"/>
	<polyline id="XMLID_8_" points="175.8,490.7 464.2,490.7 464.2,474.5 175.8,474.5 	"/>
	<polygon id="XMLID_9_" points="134,144.2 189.4,88.7 189.4,77.7 134,21.3 122,32.4 172.4,82.8 122,133.1 	"/>
	<polyline id="XMLID_10_" points="184.3,75.1 0,75.1 0,91.3 184.3,91.3 	"/>
</g>
</svg>
